<svg xmlns="http://www.w3.org/2000/svg" style="display:none">
<symbol id="address-card" viewBox="0 0 576 512"><path fill="currentColor" d="M64 32C28.7 32 0 60.7 0 96L0 416c0 35.3 28.7 64 64 64l448 0c35.3 0 64-28.7 64-64l0-320c0-35.3-28.7-64-64-64L64 32zm80 256l64 0c44.2 0 80 35.8 80 80 0 8.8-7.2 16-16 16L80 384c-8.8 0-16-7.2-16-16 0-44.2 35.8-80 80-80zm-24-96a56 56 0 1 1 112 0 56 56 0 1 1 -112 0zm240-48l112 0c13.3 0 24 10.7 24 24s-10.7 24-24 24l-112 0c-13.3 0-24-10.7-24-24s10.7-24 24-24zm0 96l112 0c13.3 0 24 10.7 24 24s-10.7 24-24 24l-112 0c-13.3 0-24-10.7-24-24s10.7-24 24-24z"/></symbol>
<symbol id="bars" viewBox="0 0 448 512"><path fill="currentColor" d="M0 96C0 78.3 14.3 64 32 64l384 0c17.7 0 32 14.3 32 32s-14.3 32-32 32L32 128C14.3 128 0 113.7 0 96zM0 256c0-17.7 14.3-32 32-32l384 0c17.7 0 32 14.3 32 32s-14.3 32-32 32L32 288c-17.7 0-32-14.3-32-32zM448 416c0 17.7-14.3 32-32 32L32 448c-17.7 0-32-14.3-32-32s14.3-32 32-32l384 0c17.7 0 32 14.3 32 32z"/></symbol>
<symbol id="briefcase" viewBox="0 0 512 512"><path fill="currentColor" d="M200 48l112 0c4.4 0 8 3.6 8 8l0 40-128 0 0-40c0-4.4 3.6-8 8-8zm-56 8l0 40-80 0C28.7 96 0 124.7 0 160l0 96 512 0 0-96c0-35.3-28.7-64-64-64l-80 0 0-40c0-30.9-25.1-56-56-56L200 0c-30.9 0-56 25.1-56 56zM512 304l-192 0 0 16c0 17.7-14.3 32-32 32l-64 0c-17.7 0-32-14.3-32-32l0-16-192 0 0 112c0 35.3 28.7 64 64 64l384 0c35.3 0 64-28.7 64-64l0-112z"/></symbol>
<symbol id="close" viewBox="0 0 384 512"><path fill="currentColor" d="M55.1 73.4c-12.5-12.5-32.8-12.5-45.3 0s-12.5 32.8 0 45.3L147.2 256 9.9 393.4c-12.5 12.5-12.5 32.8 0 45.3s32.8 12.5 45.3 0L192.5 301.3 329.9 438.6c12.5 12.5 32.8 12.5 45.3 0s12.5-32.8 0-45.3L237.8 256 375.1 118.6c12.5-12.5 12.5-32.8 0-45.3s-32.8-12.5-45.3 0L192.5 210.7 55.1 73.4z"/></symbol>
<symbol id="envelope" viewBox="0 0 512 512"><path fill="currentColor" d="M48 64c-26.5 0-48 21.5-48 48 0 15.1 7.1 29.3 19.2 38.4l208 156c17.1 12.8 40.5 12.8 57.6 0l208-156c12.1-9.1 19.2-23.3 19.2-38.4 0-26.5-21.5-48-48-48L48 64zM0 196L0 384c0 35.3 28.7 64 64 64l384 0c35.3 0 64-28.7 64-64l0-188-198.4 148.8c-34.1 25.6-81.1 25.6-115.2 0L0 196z"/></symbol>
<symbol id="hand-peace" viewBox="0 0 448 512"><path fill="currentColor" d="M192 0c17.7 0 32 14.3 32 32l0 208-64 0 0-208c0-17.7 14.3-32 32-32zm96 160c17.7 0 32 14.3 32 32l0 64c0 17.7-14.3 32-32 32s-32-14.3-32-32l0-64c0-17.7 14.3-32 32-32zm64 64c0-17.7 14.3-32 32-32s32 14.3 32 32l0 64c0 17.7-14.3 32-32 32s-32-14.3-32-32l0-64zM61.3 51.2L143.9 240 74.1 240 2.7 76.8C-4.4 60.6 3 41.8 19.2 34.7S54.2 35 61.3 51.2zm27 221.3l-.2-.5 95.9 0c22.1 0 40 17.9 40 40s-17.9 40-40 40l-56 0c-8.8 0-16 7.2-16 16s7.2 16 16 16l56 0c39.8 0 72-32.2 72-72l0-.6c9.4 5.4 20.3 8.6 32 8.6 13.2 0 25.4-4 35.6-10.8 8.7 24.9 32.5 42.8 60.4 42.8 11.7 0 22.6-3.1 32-8.6l0 8.6c0 88.4-71.6 160-160 160l-61.7 0c-42.4 0-83.1-16.9-113.1-46.9L69.5 453.5C45.5 429.5 32 396.9 32 363l0-27c0-32.7 24.6-59.7 56.3-63.5z"/></symbol>
<symbol id="home" viewBox="0 0 512 512"><path fill="currentColor" d="M277.8 8.6c-12.3-11.4-31.3-11.4-43.5 0l-224 208c-9.6 9-12.8 22.9-8 35.1S18.8 272 32 272l16 0 0 176c0 35.3 28.7 64 64 64l288 0c35.3 0 64-28.7 64-64l0-176 16 0c13.2 0 25-8.1 29.8-20.3s1.6-26.2-8-35.1l-224-208zM240 320l32 0c26.5 0 48 21.5 48 48l0 96-128 0 0-96c0-26.5 21.5-48 48-48z"/></symbol>
<symbol id="map-marker" viewBox="0 0 384 512"><path fill="currentColor" d="M192 0C86 0 0 84.4 0 188.6 0 307.9 120.2 450.9 170.4 505.4 182.2 518.2 201.8 518.2 213.6 505.4 263.8 450.9 384 307.9 384 188.6 384 84.4 298 0 192 0z"/></symbol>
<symbol id="people-group" viewBox="0 0 512 512"><path fill="currentColor" d="M256 0a64 64 0 1 1 0 128 64 64 0 1 1 0-128zm96 312c0 25-12.7 47-32 59.9l0 92.1c0 26.5-21.5 48-48 48l-32 0c-26.5 0-48-21.5-48-48l0-92.1C172.7 359 160 337 160 312l0-40c0-53 43-96 96-96s96 43 96 96l0 40zM96 32a56 56 0 1 1 0 112 56 56 0 1 1 0-112zm16 240l0 32c0 32.5 12.1 62.1 32 84.7l0 75.3c0 1.2 0 2.5 .1 3.7-8.5 7.6-19.7 12.3-32.1 12.3l-32 0c-26.5 0-48-21.5-48-48l0-56.6C12.9 364.4 0 343.7 0 320l0-32c0-53 43-96 96-96 12.7 0 24.8 2.5 35.9 6.9-12.6 21.4-19.9 46.4-19.9 73.1zM368 464l0-75.3c19.9-22.5 32-52.2 32-84.7l0-32c0-26.7-7.3-51.6-19.9-73.1 11.1-4.5 23.2-6.9 35.9-6.9 53 0 96 43 96 96l0 32c0 23.7-12.9 44.4-32 55.4l0 56.6c0 26.5-21.5 48-48 48l-32 0c-12.3 0-23.6-4.6-32.1-12.3 0-1.2 .1-2.5 .1-3.7zM416 32a56 56 0 1 1 0 112 56 56 0 1 1 0-112z"/></symbol>
<symbol id="people-roof" viewBox="0 0 576 512"><path fill="currentColor" d="M302.3-12.6c-9-4.5-19.6-4.5-28.6 0l-256 128C1.9 123.3-4.5 142.5 3.4 158.3s27.1 22.2 42.9 14.3L288 51.8 529.7 172.6c15.8 7.9 35 1.5 42.9-14.3s1.5-35-14.3-42.9l-256-128zM288 272a56 56 0 1 0 0-112 56 56 0 1 0 0 112zm0 48c-53 0-96 43-96 96l0 32c0 17.7 14.3 32 32 32l128 0c17.7 0 32-14.3 32-32l0-32c0-53-43-96-96-96zM160 256a48 48 0 1 0 -96 0 48 48 0 1 0 96 0zm352 0a48 48 0 1 0 -96 0 48 48 0 1 0 96 0zM112 336c-44.2 0-80 35.8-80 80l0 33.1c0 17 13.8 30.9 30.9 30.9l87.8 0c-4.3-9.8-6.7-20.6-6.7-32l0-48c0-18.4 3.5-36 9.8-52.2-12.2-7.5-26.5-11.8-41.8-11.8zM425.4 480l87.8 0c17 0 30.9-13.8 30.9-30.9l0-33.1c0-44.2-35.8-80-80-80-15.3 0-29.6 4.3-41.8 11.8 6.3 16.2 9.8 33.8 9.8 52.2l0 48c0 11.4-2.4 22.2-6.7 32z"/></symbol>
<symbol id="person-chalkboard" viewBox="0 0 640 512"><path fill="currentColor" d="M192 80a56 56 0 1 0 0-112 56 56 0 1 0 0 112zM176 512l0-160c0-8.8 7.2-16 16-16s16 7.2 16 16l0 160c0 17.7 14.3 32 32 32s32-14.3 32-32l0-336 128 0c17.7 0 32-14.3 32-32s-14.3-32-32-32l-16 0 0-48 192 0 0 192-192 0 0-32-64 0 0 48c0 26.5 21.5 48 48 48l224 0c26.5 0 48-21.5 48-48l0-224c0-26.5-21.5-48-48-48L368 0c-26.5 0-48 21.5-48 48l0 64-122.7 0c-45.6 0-88.5 21.6-115.6 58.2L14.3 260.9c-10.5 14.2-7.6 34.2 6.6 44.8s34.2 7.6 44.8-6.6L112 236.7 112 512c0 17.7 14.3 32 32 32s32-14.3 32-32z"/></symbol>
<symbol id="phone" viewBox="0 0 512 512"><path fill="currentColor" d="M160.2 25C152.3 6.1 131.7-3.9 112.1 1.4l-5.5 1.5c-64.6 17.6-119.8 80.2-103.7 156.4 37.1 175 174.8 312.7 349.8 349.8 76.3 16.2 138.8-39.1 156.4-103.7l1.5-5.5c5.4-19.7-4.7-40.3-23.5-48.1l-97.3-40.5c-16.5-6.9-35.6-2.1-47 11.8l-38.6 47.2C233.9 335.4 177.3 277 144.8 205.3L189 169.3c13.9-11.3 18.6-30.4 11.8-47L160.2 25z"/></symbol>
<symbol id="user" viewBox="0 0 448 512"><path fill="currentColor" d="M224 248a120 120 0 1 0 0-240 120 120 0 1 0 0 240zm-29.7 56C95.8 304 16 383.8 16 482.3 16 498.7 29.3 512 45.7 512l356.6 0c16.4 0 29.7-13.3 29.7-29.7 0-98.5-79.8-178.3-178.3-178.3l-59.4 0z"/></symbol>
</svg>